<!DOCTYPE svg PUBLIC "-//W3C//DTD SVG 1.1//EN" "http://www.w3.org/Graphics/SVG/1.1/DTD/svg11.dtd">
<!-- Uploaded to: SVG Repo, www.svgrepo.com, Transformed by: SVG Repo Mixer Tools -->
<svg width="800px" height="800px" viewBox="0 0 16 16" xmlns="http://www.w3.org/2000/svg" fill="#d9083c" stroke="#d9083c">
<g id="SVGRepo_bgCarrier" stroke-width="0"/>
<g id="SVGRepo_tracerCarrier" stroke-linecap="round" stroke-linejoin="round"/>
<g id="SVGRepo_iconCarrier"> <path d="m 7.015625 0 c -1.109375 0 -2 0.890625 -2 2 v 1 h -3.015625 c -1.109375 0 -2 0.890625 -2 2 v 2 h 1.015625 c 1.105469 0 2 0.890625 2 2 s -0.894531 2 -2 2 h -1.015625 v 2.988281 c 0 1.105469 0.890625 2 2 2 h 3.015625 v -0.988281 c 0 -1.109375 0.890625 -2 2 -2 c 1.105469 0 2 0.890625 2 2 v 0.988281 h 2 c 1.105469 0 2 -0.894531 2 -2 v -2.988281 h 1 c 1.105469 0 2 -0.890625 2 -2 s -0.894531 -2 -2 -2 h -1 v -2 c 0 -1.109375 -0.894531 -2 -2 -2 h -2 v -1 c 0 -1.109375 -0.894531 -2 -2 -2 z m 0 0" fill="#ffffff"/> </g>
</svg>